<svg data-v-0dd9719b="" version="1.0" xmlns="http://www.w3.org/2000/svg" xmlns:xlink="http://www.w3.org/1999/xlink" width="100%" height="100%" viewBox="0 0 340.000000 250.000000" preserveAspectRatio="xMidYMid meet" color-interpolation-filters="sRGB" style="margin: auto;"> <rect data-v-0dd9719b="" x="0" y="0" width="100%" height="100%" fill="#fff" fill-opacity="1" class="background"></rect> <rect data-v-0dd9719b="" x="0" y="0" width="100%" height="100%" fill="url(#watermark)" fill-opacity="1" class="watermarklayer"></rect> <g data-v-0dd9719b="" fill="#333" class="icon-text-wrapper icon-svg-group iconsvg" transform="translate(48.345001220703125,95.00389671437472)"><g class="iconsvg-imagesvg" transform="translate(0,0)"><g><rect fill="#333" fill-opacity="0" stroke-width="2" x="0" y="0" width="60" height="59.9922010138682" class="image-rect"></rect> <svg x="0" y="0" width="60" height="59.9922010138682" filtersec="colorsb6372607162" class="image-svg-svg primary" style="overflow: visible;"><svg xmlns="http://www.w3.org/2000/svg" viewBox="-0.025064129382371902 0.02431926503777504 99.97372436523438 99.96115112304688"><path d="M92.11 7.56a14.27 14.27 0 0 0-24.36 10.7A17.91 17.91 0 0 1 49.27 35.5a14.42 14.42 0 0 0-13.77 15A17.89 17.89 0 0 1 17 67.72a14.29 14.29 0 1 0 14.9 14.93 17.87 17.87 0 0 1 17.7-18.48h.8a14.23 14.23 0 0 0 7-2.2 13.93 13.93 0 0 0 2.6-2.09 14.23 14.23 0 0 0 4.15-9.45A17.87 17.87 0 0 1 81.86 32h.5a2.8 2.8 0 0 0 .29 0 14.27 14.27 0 0 0 9.46-24.44z" fill="#004e9a"></path><path d="M75.59 43.5a14.22 14.22 0 0 0-4.15 10.7A17.93 17.93 0 0 1 53 71.44a14.28 14.28 0 1 0 14.91 14.9 17.86 17.86 0 0 1 17.65-18.46h.79A14.28 14.28 0 1 0 75.59 43.5zM36.28 4.19a14.22 14.22 0 0 0-4.15 10.7 17.91 17.91 0 0 1-18.48 17.23 14.29 14.29 0 1 0 14.89 14.93 17.87 17.87 0 0 1 17.7-18.48H47A14.28 14.28 0 1 0 36.28 4.19z" fill="#27b4d4"></path><path d="M20.9 20.91a9.91 9.91 0 1 1 0-14 9.9 9.9 0 0 1 0 14zM93.21 93.21a9.91 9.91 0 1 1 0-14 9.9 9.9 0 0 1 0 14z" fill="#004e9a"></path></svg></svg> <!----></g></g> <g transform="translate(67,0.9648532867431641)"><g data-gra="path-name" fill-rule="" class="tp-name iconsvg-namesvg" transform="translate(0,0)"><g transform="scale(1)"><g><path d="M26.68-32.4Q30.78-29.38 34.88-27.22 38.97-25.06 44.19-22.99L44.19-22.99 40.5-15.84Q36.77-17.46 33.62-19.57L33.62-19.57 33.62-16.7 11.47-16.7 11.47-19.48Q7.96-17.73 4.14-16.11L4.14-16.11 1.8-19.75Q7.69-24.25 11.36-28.01 15.03-31.77 19.98-38.25L19.98-38.25 27.99-34.29 26.68-32.4ZM17.32-22.99L29.16-22.99Q26.1-25.79 23.89-28.98L23.89-28.98Q20.75-25.43 17.32-22.99L17.32-22.99ZM37.08-14.22L37.08 4.54 29.43 4.54 29.43 2.92 15.93 2.92 15.93 4.54 8.19 4.54 8.28-14.22 15.93-14.22 15.93-11.38Q16.29-12.87 17.48-13.54 18.68-14.22 20.79-14.22L20.79-14.22 37.08-14.22ZM15.93-8.32L15.93-3.06 29.43-3.1 29.43-8.32 15.93-8.32ZM54.54-32.04Q54.9-33.48 55.75-34.36 56.61-35.23 57.83-35.23L57.83-35.23 62.82-35.28 62.82-0.32Q62.82 2.48 61.88 3.53 60.93 4.59 58.81 4.59L58.81 4.59 55.39 4.59 54.81 0.72 53.82 0.72 53.82-0.85 56.84-0.85 56.84-8.28 54.13-8.28Q53.82-4.09 52.97-1.19 52.11 1.71 50.45 4.41L50.45 4.41 47.25 3.15Q47.97-0.94 48.24-4.41 48.51-7.88 48.58-12.94 48.65-18 48.69-30.69L48.69-30.69 48.69-35.05 54.54-35.05 54.54-32.04ZM83.75-5.76L88.06-4.95Q88.06-1.3 86.76 1.19 85.45 3.69 82.71 3.69L82.71 3.69 69.66 3.69Q67 3.69 65.52 1.91 64.03 0.14 64.03-3.1L64.03-3.1 64.03-35.05 70.97-35.05 70.97-32.09Q71.5-33.48 72.74-34.27 73.98-35.05 75.91-35.05L75.91-35.05 86.27-35.05 86.27-11.92 70.97-11.92 70.97-2.92 81.9-2.92 81.9-7.96 83.75-7.96 83.75-5.76ZM54.54-24.97L56.84-24.97 56.84-29.11 54.54-29.11 54.54-24.97ZM72.81-17.86L72.81-29.11 70.97-29.11 70.97-17.86 72.81-17.86ZM77.98-17.86L79.83-17.86 79.83-29.11 77.98-29.11 77.98-17.86ZM54.45-14.4L56.84-14.4 56.84-18.86 54.54-18.86 54.45-14.4ZM133.29-15.93L117.27-15.93Q116.78-14.45 116.06-12.82L116.06-12.82 131.76-12.82 131.76 4.41 124.6 4.41 124.6 2.79 117.22 2.79 117.22 4.41 110.07 4.41 110.07-3.51Q107.86-1.08 104.49 1.53L104.49 1.53 102.15-0.36Q104.31-3.6 105.53-5.85L105.53-5.85Q103.95-3.65 101.72-1.82 99.5 0 96.53 1.98L96.53 1.98 93.06-4.23Q94.81-4.95 96.39-5.8L96.39-5.8 96.44-18.27 91.94-18.27 91.94-24.43 103.14-24.43 103.14-9.58Q103.64-9.9 105.03-10.89L105.03-10.89 106.92-8.64Q108.59-12.15 109.75-15.93L109.75-15.93 104.22-15.93 104.22-21.64 111.28-21.64 111.96-24.75 109.62-24.75 109.62-27.13 105.12-27.13 105.12-33.3 109.62-33.3 109.62-36.67 116.5-36.67 116.5-33.3 121.72-33.3 121.72-36.67 128.56-36.67 128.56-33.3 132.84-33.3 132.84-27.13 128.56-27.13 128.56-24.79 121.72-24.79 121.72-27.13 116.5-27.13 116.5-24.75 115.78-24.75 119.47-24.21Q119.16-22.59 118.89-21.64L118.89-21.64 133.29-21.64 133.29-15.93ZM104.22-30.64L98.33-25.74Q97.47-27.99 96.41-29.81 95.36-31.63 93.78-33.84L93.78-33.84 96.61-36.36Q98.59-35.5 100.39-34.2 102.19-32.89 104.22-30.64L104.22-30.64ZM124.6-2.34L124.6-8.14 117.22-8.14 117.22-2.34 124.6-2.34ZM150.66-35.46Q149.13-30.33 147.42-26.73L147.42-26.73 147.42 4.54 140.58 4.54 140.58-16.43 138.96-14.54 136.17-16.43Q138.56-22.32 139.93-26.93 141.3-31.54 142.47-37.53L142.47-37.53 150.66-35.46ZM174.24-4.18L178.11-3.38Q178.11 0.18 177.03 2.07 175.95 3.96 173.16 3.96L173.16 3.96 167.18 3.96Q164.56 3.96 163.51 2.43 162.45 0.9 162.45-2.43L162.45-2.43 162.45-12.38Q161.06-7.74 158.44-3.55 155.84 0.63 151.65 4.86L151.65 4.86 148.32 1.89Q151.43-3.55 153.36-8.84 155.29-14.13 156.28-20.79L156.28-20.79 148.59-20.79 148.59-27.9 157.05-27.9Q157.28-31.72 157.28-36.13L157.28-36.13 164.75-36.13 164.75-33.25 167.35-35.77Q169.06-35.37 171.29-34.06 173.52-32.76 175.32-31.09L175.32-31.09 171.9-27.9 175.45-27.9 175.45-20.79 164.16-20.79Q163.89-18.81 163.75-17.77L163.75-17.77 169.51-17.77 169.51-2.25 172.39-2.25 172.39-6.39 174.24-6.39 174.24-4.18ZM164.75-33.25Q164.75-31.32 164.66-27.9L164.66-27.9 168.97-27.9Q166.86-31.23 164.75-33.25L164.75-33.25Z" transform="translate(-1.7999999523162842, 38.25)"></path></g> <!----> <!----> <!----> <!----> <!----> <!----> <!----></g></g> <g data-gra="path-slogan" fill-rule="" class="tp-slogan iconsvg-slogansvg" fill="#333" transform="translate(5,49.11000061035156)"><rect x="0" height="1" y="3.9750003814697266" width="39.86499786376953"></rect> <rect height="1" y="3.9750003814697266" width="39.86499786376953" x="126.44499969482422"></rect> <g transform="translate(42.86499786376953,0)"><g transform="scale(1)"><path d="M2.06-5.06L6.56-5.06L6.56-8.58L7.73-8.58L7.73 0L6.56 0L6.56-3.98L2.06-3.98L2.06 0L0.89 0L0.89-8.58L2.06-8.58L2.06-5.06ZM10.83-1.03L15.98-1.03L15.98 0L9.66 0L9.66-8.58L15.89-8.58L15.89-7.59L10.83-7.59L10.83-4.92L15.52-4.92L15.52-3.89L10.83-3.89L10.83-1.03ZM23.02-3.89L18.80-3.89L18.80 0L17.63 0L17.63-8.58L23.58-8.58L23.58-7.59L18.80-7.59L18.80-4.92L23.02-4.92L23.02-3.89ZM26.06-1.03L31.22-1.03L31.22 0L24.89 0L24.89-8.58L31.13-8.58L31.13-7.59L26.06-7.59L26.06-4.92L30.75-4.92L30.75-3.89L26.06-3.89L26.06-1.03ZM32.91-8.58L34.08-8.58L34.08 0L32.91 0L32.91-8.58ZM40.78-8.58L45.09-1.64L45.09-8.58L46.22-8.58L46.22 0L44.91 0L40.55-6.94L40.50-6.94L40.50 0L39.38 0L39.38-8.58L40.78-8.58ZM54.80-4.27L54.80-4.27Q54.61-7.64 51.80-7.83L51.80-7.83Q48.94-7.69 48.80-4.27L48.80-4.27Q48.94-0.94 51.80-0.80L51.80-0.80Q54.61-0.98 54.80-4.27ZM55.97-4.27L55.97-4.27Q55.69 0 51.80 0.14L51.80 0.14Q47.86 0 47.58-4.27L47.58-4.27Q47.81-8.72 51.80-8.81L51.80-8.81Q55.69-8.67 55.97-4.27ZM64.27-8.58L61.03-3.47L61.03 0L59.86 0L59.86-3.47L56.63-8.58L57.98-8.58L60.42-4.45L62.91-8.58L64.27-8.58ZM72.09-4.27L72.09-4.27Q71.91-7.64 69.09-7.83L69.09-7.83Q66.23-7.69 66.09-4.27L66.09-4.27Q66.23-0.94 69.09-0.80L69.09-0.80Q71.91-0.98 72.09-4.27ZM73.27-4.27L73.27-4.27Q72.98 0 69.09 0.14L69.09 0.14Q65.16 0 64.88-4.27L64.88-4.27Q65.11-8.72 69.09-8.81L69.09-8.81Q72.98-8.67 73.27-4.27ZM80.30-3.19L80.30-8.58L81.47-8.58L81.47-3.05Q81.33 0.05 77.95 0.14L77.95 0.14Q74.81 0.05 74.67-2.86L74.67-2.86L74.67-8.58L75.84-8.58L75.84-3.19Q75.89-0.84 78-0.80L78-0.80Q80.30-0.84 80.30-3.19L80.30-3.19Z" transform="translate(-0.890625, 8.8125)"></path></g></g></g></g></g><defs v-gra="od"></defs></svg>